<?xml version="1.0" encoding="UTF-8" standalone="no"?>
<!DOCTYPE svg PUBLIC "-//W3C//DTD SVG 1.1//EN"
 "http://www.w3.org/Graphics/SVG/1.1/DTD/svg11.dtd">
<!-- Generated by graphviz version 2.38.0 (20140413.2041)
 -->
<!-- Title: G Pages: 1 -->
<svg width="529pt" height="832pt"
 viewBox="0.00 0.00 529.00 832.00" xmlns="http://www.w3.org/2000/svg" xmlns:xlink="http://www.w3.org/1999/xlink">
<g id="graph0" class="graph" transform="scale(1 1) rotate(0) translate(4 828)">
<title>G</title>
<polygon fill="white" stroke="none" points="-4,4 -4,-828 525,-828 525,4 -4,4"/>
<g id="clust1" class="cluster"><title>cluster_Global</title>
<path fill="none" stroke="gray" d="M20,-8C20,-8 501,-8 501,-8 507,-8 513,-14 513,-20 513,-20 513,-804 513,-804 513,-810 507,-816 501,-816 501,-816 20,-816 20,-816 14,-816 8,-810 8,-804 8,-804 8,-20 8,-20 8,-14 14,-8 20,-8"/>
<text text-anchor="middle" x="260.5" y="-803.2" font-family="Times,serif" font-size="11.00" fill="gray">Global</text>
</g>
<g id="clust2" class="cluster"><title>cluster_\Docler</title>
<path fill="none" stroke="gray" d="M28,-16C28,-16 493,-16 493,-16 499,-16 505,-22 505,-28 505,-28 505,-732 505,-732 505,-738 499,-744 493,-744 493,-744 28,-744 28,-744 22,-744 16,-738 16,-732 16,-732 16,-28 16,-28 16,-22 22,-16 28,-16"/>
<text text-anchor="middle" x="260.5" y="-731.2" font-family="Times,serif" font-size="11.00" fill="gray">Docler</text>
</g>
<g id="clust3" class="cluster"><title>cluster_\Docler\Config</title>
<path fill="none" stroke="gray" d="M59.5,-644C59.5,-644 399.5,-644 399.5,-644 405.5,-644 411.5,-650 411.5,-656 411.5,-656 411.5,-704 411.5,-704 411.5,-710 405.5,-716 399.5,-716 399.5,-716 59.5,-716 59.5,-716 53.5,-716 47.5,-710 47.5,-704 47.5,-704 47.5,-656 47.5,-656 47.5,-650 53.5,-644 59.5,-644"/>
<text text-anchor="middle" x="229.5" y="-703.2" font-family="Times,serif" font-size="11.00" fill="gray">Config</text>
</g>
<g id="clust4" class="cluster"><title>cluster_\Docler\Language</title>
<path fill="none" stroke="gray" d="M36,-294C36,-294 485,-294 485,-294 491,-294 497,-300 497,-306 497,-306 497,-624 497,-624 497,-630 491,-636 485,-636 485,-636 36,-636 36,-636 30,-636 24,-630 24,-624 24,-624 24,-306 24,-306 24,-300 30,-294 36,-294"/>
<text text-anchor="middle" x="260.5" y="-623.2" font-family="Times,serif" font-size="11.00" fill="gray">Language</text>
</g>
<g id="clust5" class="cluster"><title>cluster_\Docler\Language\Exceptions</title>
<path fill="none" stroke="gray" d="M273,-536C273,-536 477,-536 477,-536 483,-536 489,-542 489,-548 489,-548 489,-596 489,-596 489,-602 483,-608 477,-608 477,-608 273,-608 273,-608 267,-608 261,-602 261,-596 261,-596 261,-548 261,-548 261,-542 267,-536 273,-536"/>
<text text-anchor="middle" x="375" y="-595.2" font-family="Times,serif" font-size="11.00" fill="gray">Exceptions</text>
</g>
<g id="clust6" class="cluster"><title>cluster_\Docler\Language\Generators</title>
<path fill="none" stroke="gray" d="M49.5,-402C49.5,-402 436.5,-402 436.5,-402 442.5,-402 448.5,-408 448.5,-414 448.5,-414 448.5,-516 448.5,-516 448.5,-522 442.5,-528 436.5,-528 436.5,-528 49.5,-528 49.5,-528 43.5,-528 37.5,-522 37.5,-516 37.5,-516 37.5,-414 37.5,-414 37.5,-408 43.5,-402 49.5,-402"/>
<text text-anchor="middle" x="243" y="-515.2" font-family="Times,serif" font-size="11.00" fill="gray">Generators</text>
</g>
<g id="clust7" class="cluster"><title>cluster_\Docler\Api</title>
<path fill="none" stroke="gray" d="M49.5,-24C49.5,-24 478.5,-24 478.5,-24 484.5,-24 490.5,-30 490.5,-36 490.5,-36 490.5,-274 490.5,-274 490.5,-280 484.5,-286 478.5,-286 478.5,-286 49.5,-286 49.5,-286 43.5,-286 37.5,-280 37.5,-274 37.5,-274 37.5,-36 37.5,-36 37.5,-30 43.5,-24 49.5,-24"/>
<text text-anchor="middle" x="264" y="-273.2" font-family="Times,serif" font-size="11.00" fill="gray">Api</text>
</g>
<g id="clust8" class="cluster"><title>cluster_\Docler\Api\Exceptions</title>
<path fill="none" stroke="gray" d="M279.5,-186C279.5,-186 470.5,-186 470.5,-186 476.5,-186 482.5,-192 482.5,-198 482.5,-198 482.5,-246 482.5,-246 482.5,-252 476.5,-258 470.5,-258 470.5,-258 279.5,-258 279.5,-258 273.5,-258 267.5,-252 267.5,-246 267.5,-246 267.5,-198 267.5,-198 267.5,-192 273.5,-186 279.5,-186"/>
<text text-anchor="middle" x="375" y="-245.2" font-family="Times,serif" font-size="11.00" fill="gray">Exceptions</text>
</g>
<!-- \\Docler\\Config\\Config -->
<g id="node1" class="node"><title>\\Docler\\Config\\Config</title>
<polygon fill="none" stroke="black" points="403.5,-688 346.5,-688 346.5,-652 403.5,-652 403.5,-688"/>
<text text-anchor="middle" x="375" y="-667.2" font-family="Courier,monospace" font-size="11.00">Config</text>
</g>
<!-- \\Docler\\Config\\ConfigInterface -->
<g id="node2" class="node"><title>\\Docler\\Config\\ConfigInterface</title>
<polygon fill="none" stroke="black" points="173.5,-688 55.5,-688 55.5,-652 173.5,-652 173.5,-688"/>
<text text-anchor="middle" x="114.5" y="-667.2" font-family="Courier,monospace" font-size="11.00">ConfigInterface</text>
</g>
<!-- \\Docler\\Config\\Config&#45;&gt;\\Docler\\Config\\ConfigInterface -->
<g id="edge1" class="edge"><title>\\Docler\\Config\\Config&#45;&gt;\\Docler\\Config\\ConfigInterface</title>
<path fill="none" stroke="black" stroke-dasharray="1,5" d="M346.336,-670C307.793,-670 236.69,-670 183.541,-670"/>
<polygon fill="none" stroke="black" points="183.502,-666.5 173.502,-670 183.502,-673.5 183.502,-666.5"/>
</g>
<!-- \\Docler\\Language\\Exceptions\\InvalidConfigurationException -->
<g id="node3" class="node"><title>\\Docler\\Language\\Exceptions\\InvalidConfigurationException</title>
<polygon fill="none" stroke="black" points="481,-580 269,-580 269,-544 481,-544 481,-580"/>
<text text-anchor="middle" x="375" y="-559.2" font-family="Courier,monospace" font-size="11.00">InvalidConfigurationException</text>
</g>
<!-- Exception -->
<g id="node16" class="node"><title>Exception</title>
<ellipse fill="none" stroke="black" cx="114.5" cy="-770" rx="57.6901" ry="18"/>
<text text-anchor="middle" x="114.5" y="-766.3" font-family="Times,serif" font-size="14.00" fill="gray">Exception</text>
</g>
<!-- \\Docler\\Language\\Exceptions\\InvalidConfigurationException&#45;&gt;Exception -->
<g id="edge2" class="edge"><title>\\Docler\\Language\\Exceptions\\InvalidConfigurationException&#45;&gt;Exception</title>
<path fill="none" stroke="black" d="M342.459,-580.288C318.728,-594.844 286.114,-616.599 261,-640 227.687,-671.041 231.137,-689.868 197,-720 184.341,-731.174 168.875,-741.362 154.831,-749.584"/>
<polygon fill="none" stroke="black" points="152.812,-746.706 145.851,-754.693 156.273,-752.79 152.812,-746.706"/>
</g>
<!-- \\Docler\\Language\\Generators\\GeneratorFactory -->
<g id="node4" class="node"><title>\\Docler\\Language\\Generators\\GeneratorFactory</title>
<polygon fill="none" stroke="black" points="437.5,-500 312.5,-500 312.5,-464 437.5,-464 437.5,-500"/>
<text text-anchor="middle" x="375" y="-479.2" font-family="Courier,monospace" font-size="11.00">GeneratorFactory</text>
</g>
<!-- \\Docler\\Language\\Generators\\AbstractGenerator -->
<g id="node5" class="node"><title>\\Docler\\Language\\Generators\\AbstractGenerator</title>
<polygon fill="none" stroke="black" points="440.5,-446 309.5,-446 309.5,-410 440.5,-410 440.5,-446"/>
<text text-anchor="start" x="341" y="-431.2" font-family="Courier,monospace" font-size="11.00">«abstract»</text>
<text text-anchor="start" x="317.5" y="-419.2" font-family="Courier,monospace" font-size="11.00">AbstractGenerator</text>
</g>
<!-- \\Docler\\Language\\Generators\\GeneratorInterface -->
<g id="node6" class="node"><title>\\Docler\\Language\\Generators\\GeneratorInterface</title>
<polygon fill="none" stroke="black" points="183.5,-446 45.5,-446 45.5,-410 183.5,-410 183.5,-446"/>
<text text-anchor="middle" x="114.5" y="-425.2" font-family="Courier,monospace" font-size="11.00">GeneratorInterface</text>
</g>
<!-- \\Docler\\Language\\Generators\\AbstractGenerator&#45;&gt;\\Docler\\Language\\Generators\\GeneratorInterface -->
<g id="edge4" class="edge"><title>\\Docler\\Language\\Generators\\AbstractGenerator&#45;&gt;\\Docler\\Language\\Generators\\GeneratorInterface</title>
<path fill="none" stroke="black" stroke-dasharray="1,5" d="M309.436,-428C274.443,-428 230.927,-428 193.988,-428"/>
<polygon fill="none" stroke="black" points="193.756,-424.5 183.756,-428 193.756,-431.5 193.756,-424.5"/>
</g>
<!-- \\Docler\\Language\\LanguageBatchBoFactory -->
<g id="node7" class="node"><title>\\Docler\\Language\\LanguageBatchBoFactory</title>
<polygon fill="none" stroke="black" points="457.5,-392 292.5,-392 292.5,-356 457.5,-356 457.5,-392"/>
<text text-anchor="middle" x="375" y="-371.2" font-family="Courier,monospace" font-size="11.00">LanguageBatchBoFactory</text>
</g>
<!-- \\Docler\\Language\\AbstractLanguageBatch -->
<g id="node8" class="node"><title>\\Docler\\Language\\AbstractLanguageBatch</title>
<polygon fill="none" stroke="black" points="454,-338 296,-338 296,-302 454,-302 454,-338"/>
<text text-anchor="start" x="341" y="-323.2" font-family="Courier,monospace" font-size="11.00">«abstract»</text>
<text text-anchor="start" x="304" y="-311.2" font-family="Courier,monospace" font-size="11.00">AbstractLanguageBatch</text>
</g>
<!-- \\Docler\\Language\\LanguageBatchInterface -->
<g id="node9" class="node"><title>\\Docler\\Language\\LanguageBatchInterface</title>
<polygon fill="none" stroke="black" points="197,-338 32,-338 32,-302 197,-302 197,-338"/>
<text text-anchor="middle" x="114.5" y="-317.2" font-family="Courier,monospace" font-size="11.00">LanguageBatchInterface</text>
</g>
<!-- \\Docler\\Language\\AbstractLanguageBatch&#45;&gt;\\Docler\\Language\\LanguageBatchInterface -->
<g id="edge3" class="edge"><title>\\Docler\\Language\\AbstractLanguageBatch&#45;&gt;\\Docler\\Language\\LanguageBatchInterface</title>
<path fill="none" stroke="black" stroke-dasharray="1,5" d="M295.74,-320C267.825,-320 236.131,-320 207.189,-320"/>
<polygon fill="none" stroke="black" points="207.078,-316.5 197.078,-320 207.077,-323.5 207.078,-316.5"/>
</g>
<!-- \\Docler\\Api\\Exceptions\\InvalidApiResponseException -->
<g id="node10" class="node"><title>\\Docler\\Api\\Exceptions\\InvalidApiResponseException</title>
<polygon fill="none" stroke="black" points="474.5,-230 275.5,-230 275.5,-194 474.5,-194 474.5,-230"/>
<text text-anchor="middle" x="375" y="-209.2" font-family="Courier,monospace" font-size="11.00">InvalidApiResponseException</text>
</g>
<!-- \\Docler\\Api\\Exceptions\\InvalidApiResponseException&#45;&gt;Exception -->
<g id="edge5" class="edge"><title>\\Docler\\Api\\Exceptions\\InvalidApiResponseException&#45;&gt;Exception</title>
<path fill="none" stroke="black" d="M332.42,-230.08C307.611,-243.089 277.765,-263.091 261,-290 158.826,-453.991 303.554,-558.821 197,-720 188.214,-733.29 174.56,-743.643 160.924,-751.393"/>
<polygon fill="none" stroke="black" points="159.213,-748.339 152.017,-756.115 162.492,-754.523 159.213,-748.339"/>
</g>
<!-- \\Docler\\Api\\ApiClient -->
<g id="node11" class="node"><title>\\Docler\\Api\\ApiClient</title>
<polygon fill="none" stroke="black" points="413.5,-176 336.5,-176 336.5,-140 413.5,-140 413.5,-176"/>
<text text-anchor="middle" x="375" y="-155.2" font-family="Courier,monospace" font-size="11.00">ApiClient</text>
</g>
<!-- \\Docler\\Api\\ApiClientInterface -->
<g id="node15" class="node"><title>\\Docler\\Api\\ApiClientInterface</title>
<polygon fill="none" stroke="black" points="183.5,-176 45.5,-176 45.5,-140 183.5,-140 183.5,-176"/>
<text text-anchor="middle" x="114.5" y="-155.2" font-family="Courier,monospace" font-size="11.00">ApiClientInterface</text>
</g>
<!-- \\Docler\\Api\\ApiClient&#45;&gt;\\Docler\\Api\\ApiClientInterface -->
<g id="edge6" class="edge"><title>\\Docler\\Api\\ApiClient&#45;&gt;\\Docler\\Api\\ApiClientInterface</title>
<path fill="none" stroke="black" stroke-dasharray="1,5" d="M336.412,-158C299.232,-158 241.203,-158 193.949,-158"/>
<polygon fill="none" stroke="black" points="193.734,-154.5 183.733,-158 193.733,-161.5 193.734,-154.5"/>
</g>
<!-- \\Docler\\Api\\ApiClientFactory -->
<g id="node12" class="node"><title>\\Docler\\Api\\ApiClientFactory</title>
<polygon fill="none" stroke="black" points="437.5,-122 312.5,-122 312.5,-86 437.5,-86 437.5,-122"/>
<text text-anchor="middle" x="375" y="-101.2" font-family="Courier,monospace" font-size="11.00">ApiClientFactory</text>
</g>
<!-- \\Docler\\Api\\ApiCall -->
<g id="node13" class="node"><title>\\Docler\\Api\\ApiCall</title>
<polygon fill="none" stroke="black" points="407,-68 343,-68 343,-32 407,-32 407,-68"/>
<text text-anchor="middle" x="375" y="-47.2" font-family="Courier,monospace" font-size="11.00">ApiCall</text>
</g>
<!-- \\Docler\\Api\\ApiInterface -->
<g id="node14" class="node"><title>\\Docler\\Api\\ApiInterface</title>
<polygon fill="none" stroke="black" points="163.5,-68 65.5,-68 65.5,-32 163.5,-32 163.5,-68"/>
<text text-anchor="middle" x="114.5" y="-47.2" font-family="Courier,monospace" font-size="11.00">ApiInterface</text>
</g>
<!-- \\Docler\\Api\\ApiCall&#45;&gt;\\Docler\\Api\\ApiInterface -->
<g id="edge7" class="edge"><title>\\Docler\\Api\\ApiCall&#45;&gt;\\Docler\\Api\\ApiInterface</title>
<path fill="none" stroke="black" stroke-dasharray="1,5" d="M342.819,-50C301.023,-50 226.037,-50 173.659,-50"/>
<polygon fill="none" stroke="black" points="173.502,-46.5001 163.502,-50 173.502,-53.5001 173.502,-46.5001"/>
</g>
</g>
</svg>
